<svg width="1500" height="1566" viewBox="0 0 1500 1566" fill="none" xmlns="http://www.w3.org/2000/svg">
<path d="M1423.94 914.55L866.87 783.15L1423.55 655.39C1466.11 649.98 1499.02 613.66 1499.02 569.63C1499.02 521.87 1460.3 483.15 1412.54 483.15C1398.06 483.15 1384.43 486.73 1372.44 493.02L844.54 714.14L1219.87 283.51C1236.55 267.74 1246.98 245.43 1246.98 220.66C1246.98 172.9 1208.26 134.18 1160.5 134.18C1126.53 134.18 1097.15 153.77 1083.01 182.27L785.92 671.42L836.43 102.64C837.42 97.4 837.96 92.01 837.96 86.49C837.96 38.73 799.24 0.0100098 751.48 0.0100098C703.72 0.0100098 665 38.73 665 86.49C665 91.37 665.42 96.15 666.2 100.81L713.38 671.32L419.97 181.56C406.15 152.2 376.3 131.86 341.7 131.86C293.94 131.86 255.22 170.58 255.22 218.34C255.22 242.49 265.13 264.32 281.09 280.01L654.64 713.88L129.39 490.12C117.02 483.3 102.81 479.4 87.69 479.4C39.93 479.4 1.21 518.12 1.21 565.88C1.21 609.35 33.29 645.32 75.06 651.43L632.12 782.84L75.47 910.59C32.91 916 0 952.32 0 996.35C0 1044.11 38.72 1082.83 86.48 1082.83C100.96 1082.83 114.59 1079.25 126.58 1072.97L654.45 851.86L279.13 1282.47C262.45 1298.24 252.02 1320.55 252.02 1345.32C252.02 1393.08 290.74 1431.8 338.5 1431.8C372.47 1431.8 401.84 1412.21 415.99 1383.72L713.08 894.58L662.56 1463.46C661.58 1468.66 661.05 1474.02 661.05 1479.5C661.05 1527.26 699.77 1565.98 747.53 1565.98C795.29 1565.98 834.01 1527.26 834.01 1479.5C834.01 1474.58 833.58 1469.77 832.79 1465.07L785.62 894.66L1079.03 1384.42C1092.85 1413.78 1122.7 1434.12 1157.3 1434.12C1205.06 1434.12 1243.78 1395.4 1243.78 1347.64C1243.78 1323.49 1233.87 1301.66 1217.91 1285.98L844.37 852.12L1369.6 1075.87C1381.97 1082.69 1396.18 1086.58 1411.3 1086.58C1459.06 1086.58 1497.78 1047.86 1497.78 1000.1C1497.78 956.63 1465.7 920.66 1423.92 914.55H1423.94ZM749.64 783.1L749.55 783.16H749.45L749.36 783.09L749.33 783L749.37 782.89L749.46 782.83H749.56L749.65 782.89L749.68 782.99L749.64 783.1V783.1Z" fill="white"/>
</svg>
